<?xml version="1.0" encoding="UTF-8" standalone="no"?>
<svg
   width="456"
   height="456"
   viewBox="0 0 456 456"
   version="1.1"
   id="svg322"
   sodipodi:docname="appicon.svg"
   inkscape:version="1.3 (0e150ed6c4, 2023-07-21)"
   xmlns:inkscape="http://www.inkscape.org/namespaces/inkscape"
   xmlns:sodipodi="http://sodipodi.sourceforge.net/DTD/sodipodi-0.dtd"
   xmlns="http://www.w3.org/2000/svg"
   xmlns:svg="http://www.w3.org/2000/svg">
  <defs
     id="defs326" />
  <sodipodi:namedview
     id="namedview324"
     pagecolor="#ffffff"
     bordercolor="#000000"
     borderopacity="0.25"
     inkscape:showpageshadow="2"
     inkscape:pageopacity="0.0"
     inkscape:pagecheckerboard="0"
     inkscape:deskcolor="#d1d1d1"
     showgrid="true"
     inkscape:zoom="0.90899125"
     inkscape:cx="-290.43184"
     inkscape:cy="134.76477"
     inkscape:window-width="2560"
     inkscape:window-height="1369"
     inkscape:window-x="-8"
     inkscape:window-y="-8"
     inkscape:window-maximized="1"
     inkscape:current-layer="svg322">
    <inkscape:grid
       id="grid1"
       units="px"
       originx="0"
       originy="0"
       spacingx="1"
       spacingy="1"
       empcolor="#0099e5"
       empopacity="0.30196078"
       color="#0099e5"
       opacity="0.14901961"
       empspacing="5"
       dotted="false"
       gridanglex="30"
       gridanglez="30"
       visible="true" />
  </sodipodi:namedview>
  <rect
     x="-0.27516678"
     y="0.13466638"
     width="456"
     height="456"
     fill="#512BD4"
     id="rect320"
     style="clip-rule:evenodd;fill:#ffffff;fill-rule:evenodd;stroke-linejoin:round;stroke-miterlimit:2" />
  <rect
     x="1.0734432"
     y="-0.764"
     width="456"
     height="456"
     fill="#512BD4"
     id="rect320-9"
     style="clip-rule:evenodd;fill:#ffffff;fill-rule:evenodd;stroke-linejoin:round;stroke-miterlimit:2" />
  <path
     d="m 105.96316,281.55057 c -2.70293,0 -5.00091,-0.90042 -6.893124,-2.70209 -1.89221,-1.84778 -2.8379,-4.04181 -2.8379,-6.58209 0,-2.58722 0.94569,-4.80389 2.8379,-6.65167 1.892214,-1.84778 4.190194,-2.77167 6.893124,-2.77167 2.74819,0 5.06799,0.92389 6.9602,2.77167 1.93749,1.84778 2.90581,4.06445 2.90581,6.65167 0,2.54028 -0.96832,4.73431 -2.90581,6.58209 -1.89221,1.80167 -4.21201,2.70209 -6.9602,2.70209 z"
     style="clip-rule:evenodd;fill:#ffffff;fill-rule:nonzero;stroke-width:0.838376;stroke-linejoin:round;stroke-miterlimit:2"
     id="path1" />
  <path
     d="m 214.02391,280.0264 h -17.57067 l -46.29091,-73.03006 c -1.17121,-1.84778 -2.14037,-3.76515 -2.90581,-5.75126 h -0.40578 c 0.36051,2.12528 0.54076,6.67515 0.54076,13.6496 v 65.13172 h -15.54349 v -99.36009 h 18.71925 l 44.7374,71.29798 c 1.89222,2.95695 3.1087,4.98917 3.64945,6.09751 h 0.26996 c -0.45021,-2.6325 -0.67573,-7.09015 -0.67573,-13.37293 v -64.02256 h 15.47557 z"
     style="clip-rule:evenodd;fill:#ffffff;fill-rule:nonzero;stroke-width:0.838376;stroke-linejoin:round;stroke-miterlimit:2"
     id="path2" />
  <path
     d="m 289.71414,280.0264 h -54.40052 v -99.36009 h 52.23835 V 194.663 h -36.15411 v 28.13085 h 33.31621 v 13.9271 h -33.31621 v 29.37835 h 38.31628 z"
     style="clip-rule:evenodd;fill:#ffffff;fill-rule:nonzero;stroke-width:0.838376;stroke-linejoin:round;stroke-miterlimit:2"
     id="path3" />
  <path
     d="M 367.02746,194.663 H 339.185 v 85.3634 H 323.10077 V 194.663 h -27.77455 v -13.99669 h 71.70124 z"
     style="clip-rule:evenodd;fill:#ffffff;fill-rule:nonzero;stroke-width:0.838376;stroke-linejoin:round;stroke-miterlimit:2"
     id="path4" />
  <rect
     style="clip-rule:evenodd;fill:#ffffff;fill-opacity:1;fill-rule:evenodd;stroke-width:1.00367;stroke-linejoin:round;stroke-miterlimit:2"
     id="rect4"
     width="457.66629"
     height="456.8884"
     x="-1.0369999"
     y="-0.05770117"
     ry="0.51010644" />
  <circle
     style="clip-rule:evenodd;fill:#fec41a;fill-opacity:1;fill-rule:evenodd;stroke-width:19.406;stroke-linejoin:round;stroke-miterlimit:2"
     id="path1-6"
     cx="227.62434"
     cy="227.62349"
     r="77.623924" />
  <path
     sodipodi:type="star"
     style="clip-rule:evenodd;fill:#fec41a;fill-opacity:1;fill-rule:evenodd;stroke-width:0.264583;stroke-linejoin:round;stroke-miterlimit:2"
     id="path2-3"
     inkscape:flatsided="false"
     sodipodi:sides="3"
     sodipodi:cx="1.6504987"
     sodipodi:cy="0.14546767"
     sodipodi:r1="0.41961831"
     sodipodi:r2="0.20980914"
     sodipodi:arg1="0"
     sodipodi:arg2="1.0471976"
     inkscape:rounded="0"
     inkscape:randomized="0"
     d="m 2.0701171,0.14546767 -0.3147138,0.18170005 -0.3147137,0.18170006 0,-0.36340012 0,-0.36340011 0.3147137,0.18170008 z"
     transform="matrix(0,-61.662325,53.401139,0,219.09524,228.6478)"
     inkscape:transform-center-y="-1.7114942"
     inkscape:transform-center-x="-3.7643974e-06" />
  <path
     sodipodi:type="star"
     style="clip-rule:evenodd;fill:#fec41a;fill-opacity:1;fill-rule:evenodd;stroke-width:0.264583;stroke-linejoin:round;stroke-miterlimit:2"
     id="path2-0"
     inkscape:flatsided="false"
     sodipodi:sides="3"
     sodipodi:cx="1.6504987"
     sodipodi:cy="0.14546767"
     sodipodi:r1="0.41961831"
     sodipodi:r2="0.20980914"
     sodipodi:arg1="0"
     sodipodi:arg2="1.0471976"
     inkscape:rounded="0"
     inkscape:randomized="0"
     d="m 2.0701171,0.14546767 -0.3147138,0.18170005 -0.3147137,0.18170006 0,-0.36340012 0,-0.36340011 0.3147137,0.18170008 z"
     transform="matrix(0,61.662325,-53.401139,0,234.63188,226.1633)"
     inkscape:transform-center-y="1.7114943"
     inkscape:transform-center-x="-6.2356026e-06" />
  <path
     sodipodi:type="star"
     style="clip-rule:evenodd;fill:#fec41a;fill-opacity:1;fill-rule:evenodd;stroke-width:0.264583;stroke-linejoin:round;stroke-miterlimit:2"
     id="path2-5"
     inkscape:flatsided="false"
     sodipodi:sides="3"
     sodipodi:cx="1.6504987"
     sodipodi:cy="0.14546767"
     sodipodi:r1="0.41961831"
     sodipodi:r2="0.20980914"
     sodipodi:arg1="0"
     sodipodi:arg2="1.0471976"
     inkscape:rounded="0"
     inkscape:randomized="0"
     d="m 2.0701171,0.14546767 -0.3147138,0.18170005 -0.3147137,0.18170006 0,-0.36340012 0,-0.36340011 0.3147137,0.18170008 z"
     transform="matrix(41.108217,-41.108217,35.600759,35.600759,223.91298,220.86662)"
     inkscape:transform-center-y="0.57049633"
     inkscape:transform-center-x="0.57050399" />
  <path
     sodipodi:type="star"
     style="clip-rule:evenodd;fill:#fec41a;fill-opacity:1;fill-rule:evenodd;stroke-width:0.264583;stroke-linejoin:round;stroke-miterlimit:2"
     id="path2-5-6"
     inkscape:flatsided="false"
     sodipodi:sides="3"
     sodipodi:cx="1.6504987"
     sodipodi:cy="0.14546767"
     sodipodi:r1="0.41961831"
     sodipodi:r2="0.20980914"
     sodipodi:arg1="0"
     sodipodi:arg2="1.0471976"
     inkscape:rounded="0"
     inkscape:randomized="0"
     d="m 2.0701171,0.14546767 -0.3147138,0.18170005 -0.3147137,0.18170006 0,-0.36340012 0,-0.36340011 0.3147137,0.18170008 z"
     transform="matrix(-41.108217,-41.108217,35.600759,-35.600759,219.45678,231.22418)"
     inkscape:transform-center-y="0.5705029"
     inkscape:transform-center-x="-0.5704968" />
  <path
     sodipodi:type="star"
     style="clip-rule:evenodd;fill:#fec41a;fill-opacity:1;fill-rule:evenodd;stroke-width:0.264583;stroke-linejoin:round;stroke-miterlimit:2"
     id="path2-5-9"
     inkscape:flatsided="false"
     sodipodi:sides="3"
     sodipodi:cx="1.6504987"
     sodipodi:cy="0.14546767"
     sodipodi:r1="0.41961831"
     sodipodi:r2="0.20980914"
     sodipodi:arg1="0"
     sodipodi:arg2="1.0471976"
     inkscape:rounded="0"
     inkscape:randomized="0"
     d="m 2.0701171,0.14546767 -0.3147138,0.18170005 -0.3147137,0.18170006 0,-0.36340012 0,-0.36340011 0.3147137,0.18170008 z"
     transform="matrix(41.108217,41.108217,-35.600759,35.600759,234.27054,225.32282)"
     inkscape:transform-center-y="-0.57050446"
     inkscape:transform-center-x="0.57049548" />
  <path
     sodipodi:type="star"
     style="clip-rule:evenodd;fill:#fec41a;fill-opacity:1;fill-rule:evenodd;stroke-width:0.264583;stroke-linejoin:round;stroke-miterlimit:2"
     id="path2-5-9-9"
     inkscape:flatsided="false"
     sodipodi:sides="3"
     sodipodi:cx="1.6504987"
     sodipodi:cy="0.14546767"
     sodipodi:r1="0.41961831"
     sodipodi:r2="0.20980914"
     sodipodi:arg1="0"
     sodipodi:arg2="1.0471976"
     inkscape:rounded="0"
     inkscape:randomized="0"
     d="m 2.0701171,0.14546767 -0.3147138,0.18170005 -0.3147137,0.18170006 0,-0.36340012 0,-0.36340011 0.3147137,0.18170008 z"
     transform="matrix(-41.108217,41.108217,-35.600759,-35.600759,229.81434,235.68038)"
     inkscape:transform-center-y="-0.57049594"
     inkscape:transform-center-x="-0.57050532" />
  <path
     sodipodi:type="star"
     style="clip-rule:evenodd;fill:#fec41a;fill-opacity:1;fill-rule:evenodd;stroke-width:0.264583;stroke-linejoin:round;stroke-miterlimit:2"
     id="path2-4"
     inkscape:flatsided="false"
     sodipodi:sides="3"
     sodipodi:cx="1.6504987"
     sodipodi:cy="0.14546767"
     sodipodi:r1="0.41961831"
     sodipodi:r2="0.20980914"
     sodipodi:arg1="0"
     sodipodi:arg2="1.0471976"
     inkscape:rounded="0"
     inkscape:randomized="0"
     d="m 2.0701171,0.14546767 -0.3147138,0.18170005 -0.3147137,0.18170006 0,-0.36340012 0,-0.36340011 0.3147137,0.18170008 z"
     transform="matrix(61.662325,0,0,53.401139,226.16413,220.50529)"
     inkscape:transform-center-x="-1.7114943"
     inkscape:transform-center-y="3.7643973e-06" />
  <path
     sodipodi:type="star"
     style="clip-rule:evenodd;fill:#fec41a;fill-opacity:1;fill-rule:evenodd;stroke-width:0.264583;stroke-linejoin:round;stroke-miterlimit:2"
     id="path2-4-6"
     inkscape:flatsided="false"
     sodipodi:sides="3"
     sodipodi:cx="1.6504987"
     sodipodi:cy="0.14546767"
     sodipodi:r1="0.41961831"
     sodipodi:r2="0.20980914"
     sodipodi:arg1="0"
     sodipodi:arg2="1.0471976"
     inkscape:rounded="0"
     inkscape:randomized="0"
     d="m 2.0701171,0.14546767 -0.3147138,0.18170005 -0.3147137,0.18170006 0,-0.36340012 0,-0.36340011 0.3147137,0.18170008 z"
     transform="matrix(-61.662325,0,0,-53.401139,228.64863,236.04172)"
     inkscape:transform-center-x="1.7114947"
     inkscape:transform-center-y="6.2356027e-06" />
</svg>
