<?xml version="1.0" encoding="UTF-8" standalone="no"?>
<!-- Created with Inkscape (http://www.inkscape.org/) -->

<svg
   width="16"
   height="16"
   viewBox="0 0 4.2333332 4.2333333"
   version="1.1"
   id="svg1"
   inkscape:version="1.3 (0e150ed6c4, 2023-07-21)"
   sodipodi:docname="cloudy3.svg"
   xmlns:inkscape="http://www.inkscape.org/namespaces/inkscape"
   xmlns:sodipodi="http://sodipodi.sourceforge.net/DTD/sodipodi-0.dtd"
   xmlns="http://www.w3.org/2000/svg"
   xmlns:svg="http://www.w3.org/2000/svg">
  <sodipodi:namedview
     id="namedview1"
     pagecolor="#ffffff"
     bordercolor="#000000"
     borderopacity="0.25"
     inkscape:showpageshadow="2"
     inkscape:pageopacity="0.0"
     inkscape:pagecheckerboard="0"
     inkscape:deskcolor="#d1d1d1"
     inkscape:document-units="mm"
     showgrid="true"
     inkscape:zoom="45.254834"
     inkscape:cx="11.932427"
     inkscape:cy="8.3637474"
     inkscape:window-width="2560"
     inkscape:window-height="1369"
     inkscape:window-x="-8"
     inkscape:window-y="-8"
     inkscape:window-maximized="1"
     inkscape:current-layer="layer1">
    <inkscape:grid
       id="grid1"
       units="px"
       originx="0"
       originy="0"
       spacingx="0.26458333"
       spacingy="0.26458333"
       empcolor="#0099e5"
       empopacity="0.30196078"
       color="#0099e5"
       opacity="0.14901961"
       empspacing="5"
       dotted="false"
       gridanglex="30"
       gridanglez="30"
       visible="true" />
  </sodipodi:namedview>
  <defs
     id="defs1" />
  <g
     inkscape:label="Layer 1"
     inkscape:groupmode="layer"
     id="layer1">
    <circle
       style="fill:#fec41a;stroke-width:0.264583;fill-opacity:1"
       id="path1"
       cx="2.1166666"
       cy="2.1166666"
       r="1.0583333" />
    <path
       sodipodi:type="star"
       style="fill:#fec41a;stroke-width:0.264583;fill-opacity:1"
       id="path2"
       inkscape:flatsided="false"
       sodipodi:sides="3"
       sodipodi:cx="1.6504987"
       sodipodi:cy="0.14546767"
       sodipodi:r1="0.41961831"
       sodipodi:r2="0.20980914"
       sodipodi:arg1="0"
       sodipodi:arg2="1.0471976"
       inkscape:rounded="0"
       inkscape:randomized="0"
       d="m 2.0701171,0.14546767 -0.3147138,0.18170005 -0.3147137,0.18170006 0,-0.36340012 0,-0.36340011 0.3147137,0.18170008 z"
       transform="matrix(0,-0.84071112,0.72807719,0,2.010755,2.1372454)"
       inkscape:transform-center-y="-0.088194302" />
    <path
       sodipodi:type="star"
       style="fill:#fec41a;stroke-width:0.264583;fill-opacity:1"
       id="path2-5"
       inkscape:flatsided="false"
       sodipodi:sides="3"
       sodipodi:cx="1.6504987"
       sodipodi:cy="0.14546767"
       sodipodi:r1="0.41961831"
       sodipodi:r2="0.20980914"
       sodipodi:arg1="0"
       sodipodi:arg2="1.0471976"
       inkscape:rounded="0"
       inkscape:randomized="0"
       d="m 2.0701171,0.14546767 -0.3147138,0.18170005 -0.3147137,0.18170006 0,-0.36340012 0,-0.36340011 0.3147137,0.18170008 z"
       transform="matrix(0.56047408,-0.56047408,0.4853848,0.4853848,2.0764369,2.0156808)"
       inkscape:transform-center-y="0.029398238"
       inkscape:transform-center-x="0.029398303" />
    <path
       sodipodi:type="star"
       style="fill:#fec41a;stroke-width:0.264583;fill-opacity:1"
       id="path2-5-6"
       inkscape:flatsided="false"
       sodipodi:sides="3"
       sodipodi:cx="1.6504987"
       sodipodi:cy="0.14546767"
       sodipodi:r1="0.41961831"
       sodipodi:r2="0.20980914"
       sodipodi:arg1="0"
       sodipodi:arg2="1.0471976"
       inkscape:rounded="0"
       inkscape:randomized="0"
       d="m 2.0701171,0.14546767 -0.3147138,0.18170005 -0.3147137,0.18170006 0,-0.36340012 0,-0.36340011 0.3147137,0.18170008 z"
       transform="matrix(-0.56047408,-0.56047408,0.4853848,-0.4853848,2.0156808,2.1568964)"
       inkscape:transform-center-y="0.029398247"
       inkscape:transform-center-x="-0.029398262" />
    <path
       sodipodi:type="star"
       style="fill:#fec41a;stroke-width:0.264583;fill-opacity:1"
       id="path2-4"
       inkscape:flatsided="false"
       sodipodi:sides="3"
       sodipodi:cx="1.6504987"
       sodipodi:cy="0.14546767"
       sodipodi:r1="0.41961831"
       sodipodi:r2="0.20980914"
       sodipodi:arg1="0"
       sodipodi:arg2="1.0471976"
       inkscape:rounded="0"
       inkscape:randomized="0"
       d="m 2.0701171,0.14546767 -0.3147138,0.18170005 -0.3147137,0.18170006 0,-0.36340012 0,-0.36340011 0.3147137,0.18170008 z"
       transform="matrix(0.84071112,0,0,0.72807719,2.0960879,2.010755)"
       inkscape:transform-center-x="-0.088194303" />
    <path
       sodipodi:type="star"
       style="fill:#fec41a;stroke-width:0.264583;fill-opacity:1"
       id="path2-4-6"
       inkscape:flatsided="false"
       sodipodi:sides="3"
       sodipodi:cx="1.6504987"
       sodipodi:cy="0.14546767"
       sodipodi:r1="0.41961831"
       sodipodi:r2="0.20980914"
       sodipodi:arg1="0"
       sodipodi:arg2="1.0471976"
       inkscape:rounded="0"
       inkscape:randomized="0"
       d="m 2.0701171,0.14546767 -0.3147138,0.18170005 -0.3147137,0.18170006 0,-0.36340012 0,-0.36340011 0.3147137,0.18170008 z"
       transform="matrix(-0.84071112,0,0,-0.72807719,2.1372454,2.2225784)"
       inkscape:transform-center-x="0.088194323" />
    <path
       style="fill:#878787;stroke-width:0.157109"
       id="path1-25"
       sodipodi:type="arc"
       sodipodi:cx="-2.8479202"
       sodipodi:cy="0.45875287"
       sodipodi:rx="0.33390418"
       sodipodi:ry="0.27751073"
       sodipodi:start="3.1415927"
       sodipodi:end="6.2831853"
       sodipodi:arc-type="slice"
       d="M -3.1818244,0.45875287 A 0.33390418,0.27751073 0 0 1 -2.8479202,0.18124214 0.33390418,0.27751073 0 0 1 -2.514016,0.45875287 H -2.8479202 Z"
       transform="rotate(-90)" />
    <path
       style="fill:#878787;stroke-width:0.170192"
       id="path1-2"
       sodipodi:type="arc"
       sodipodi:cx="2.8322532"
       sodipodi:cy="-3.7371449"
       sodipodi:rx="0.34864962"
       sodipodi:ry="0.31188056"
       sodipodi:start="3.1415927"
       sodipodi:end="6.2831853"
       sodipodi:arc-type="slice"
       d="m 2.4836036,-3.7371449 a 0.34864962,0.31188056 0 0 1 0.3486496,-0.3118806 0.34864962,0.31188056 0 0 1 0.3486496,0.3118806 H 2.8322532 Z"
       transform="rotate(90)" />
    <path
       style="fill:#878787;stroke-width:0.304022"
       id="path5"
       sodipodi:type="arc"
       sodipodi:cx="1.9223561"
       sodipodi:cy="2.1297696"
       sodipodi:rx="0.66196793"
       sodipodi:ry="0.53928983"
       sodipodi:start="3.1415927"
       sodipodi:end="6.2831853"
       sodipodi:arc-type="slice"
       d="M 1.2603882,2.1297696 A 0.66196793,0.53928983 0 0 1 1.9223561,1.5904797 0.66196793,0.53928983 0 0 1 2.5843241,2.1297696 H 1.9223561 Z" />
    <path
       style="fill:#878787;stroke-width:0.304704"
       id="path6"
       sodipodi:type="arc"
       sodipodi:cx="3.1274347"
       sodipodi:cy="1.5081869"
       sodipodi:rx="0.47673768"
       sodipodi:ry="0.44781682"
       sodipodi:start="3.1415927"
       sodipodi:end="6.2831853"
       sodipodi:arc-type="slice"
       d="M 2.6506971,1.5081869 A 0.47673768,0.44781682 0 0 1 3.1274347,1.0603701 0.47673768,0.44781682 0 0 1 3.6041724,1.5081869 H 3.1274347 Z"
       transform="matrix(0.97415114,0.22589721,-0.13288751,0.99113113,0,0)" />
    <path
       style="fill:#878787;stroke-width:0.307398"
       id="path7"
       sodipodi:type="arc"
       sodipodi:cx="4.2294226"
       sodipodi:cy="0.31647229"
       sodipodi:rx="0.43596697"
       sodipodi:ry="0.45190328"
       sodipodi:start="3.1415927"
       sodipodi:end="6.2831853"
       sodipodi:arc-type="slice"
       d="m 3.7934556,0.31647229 a 0.43596697,0.45190328 0 0 1 0.435967,-0.45190328 0.43596697,0.45190328 0 0 1 0.4359669,0.45190328 H 4.2294226 Z"
       transform="matrix(0.85246913,0.52277757,-0.33418819,0.94250637,0,0)" />
    <rect
       style="fill:#878787;stroke-width:0.295344"
       id="rect8"
       width="3.3241525"
       height="0.66242832"
       x="0.43752655"
       y="2.519489" />
    <rect
       style="fill:#878787;stroke-width:0.315439"
       id="rect9"
       width="2.6755605"
       height="0.63192743"
       x="0.84840167"
       y="2.1211355" />
    <path
       style="fill:#878787;stroke-width:0.280626"
       id="path9"
       sodipodi:type="arc"
       sodipodi:cx="-0.24408217"
       sodipodi:cy="2.6631963"
       sodipodi:rx="0.55484277"
       sodipodi:ry="0.50307661"
       sodipodi:start="3.1415927"
       sodipodi:end="6.2831853"
       sodipodi:arc-type="slice"
       d="M -0.79892494,2.6631963 A 0.55484277,0.50307661 0 0 1 -0.24408217,2.1601197 0.55484277,0.50307661 0 0 1 0.3107606,2.6631963 h -0.55484277 z"
       transform="matrix(0.92326339,-0.38416756,0.46314937,0.88628024,0,0)" />
  </g>
</svg>
