<svg width="16" height="16" viewBox="0 0 16 16" fill="none" xmlns="http://www.w3.org/2000/svg">
<path fill-rule="evenodd" clip-rule="evenodd" d="M4.64598 1.64601C4.69242 1.59945 4.7476 1.5625 4.80834 1.5373C4.86909 1.51209 4.93421 1.49911 4.99998 1.49911C5.06575 1.49911 5.13087 1.51209 5.19161 1.5373C5.25236 1.5625 5.30753 1.59945 5.35398 1.64601L11.354 7.64601C11.4005 7.69245 11.4375 7.74763 11.4627 7.80838C11.4879 7.86912 11.5009 7.93424 11.5009 8.00001C11.5009 8.06578 11.4879 8.1309 11.4627 8.19164C11.4375 8.25239 11.4005 8.30756 11.354 8.35401L5.35398 14.354C5.26009 14.4479 5.13275 14.5006 4.99998 14.5006C4.8672 14.5006 4.73986 14.4479 4.64598 14.354C4.55209 14.2601 4.49935 14.1328 4.49935 14C4.49935 13.8672 4.55209 13.7399 4.64598 13.646L10.293 8.00001L4.64598 2.35401C4.59941 2.30756 4.56247 2.25239 4.53727 2.19164C4.51206 2.1309 4.49908 2.06578 4.49908 2.00001C4.49908 1.93424 4.51206 1.86912 4.53727 1.80838C4.56247 1.74763 4.59941 1.69245 4.64598 1.64601Z" fill="#333333"/>
</svg>
