<?xml version="1.0" encoding="UTF-8" standalone="no"?>
<svg
   width="456"
   height="456"
   viewBox="0 0 456 456"
   version="1.1"
   xml:space="preserve"
   style="fill-rule:evenodd;clip-rule:evenodd;stroke-linejoin:round;stroke-miterlimit:2;"
   id="svg4"
   sodipodi:docname="splash.svg"
   inkscape:version="1.3 (0e150ed6c4, 2023-07-21)"
   xmlns:inkscape="http://www.inkscape.org/namespaces/inkscape"
   xmlns:sodipodi="http://sodipodi.sourceforge.net/DTD/sodipodi-0.dtd"
   xmlns="http://www.w3.org/2000/svg"
   xmlns:svg="http://www.w3.org/2000/svg"><defs
   id="defs4" /><sodipodi:namedview
   id="namedview4"
   pagecolor="#ffffff"
   bordercolor="#000000"
   borderopacity="0.25"
   inkscape:showpageshadow="2"
   inkscape:pageopacity="0.0"
   inkscape:pagecheckerboard="0"
   inkscape:deskcolor="#d1d1d1"
   inkscape:zoom="2"
   inkscape:cx="215.5"
   inkscape:cy="211.25"
   inkscape:window-width="2560"
   inkscape:window-height="1369"
   inkscape:window-x="-8"
   inkscape:window-y="-8"
   inkscape:window-maximized="1"
   inkscape:current-layer="svg4" />&#10;    <path
   d="m 105.50037,281.60863 c -2.70293,0 -5.00091,-0.90042 -6.893127,-2.70209 -1.892214,-1.84778 -2.837901,-4.04181 -2.837901,-6.58209 0,-2.58722 0.945687,-4.80389 2.837901,-6.65167 1.892217,-1.84778 4.190197,-2.77167 6.893127,-2.77167 2.74819,0 5.06798,0.92389 6.96019,2.77167 1.93749,1.84778 2.90581,4.06445 2.90581,6.65167 0,2.54028 -0.96832,4.73431 -2.90581,6.58209 -1.89221,1.80167 -4.212,2.70209 -6.96019,2.70209 z"
   style="fill:#ffffff;fill-rule:nonzero;stroke-width:0.838376"
   id="path1" />&#10;    <path
   d="M 213.56111,280.08446 H 195.99044 L 149.69953,207.0544 c -1.17121,-1.84778 -2.14037,-3.76515 -2.90581,-5.75126 h -0.40578 c 0.36051,2.12528 0.54076,6.67515 0.54076,13.6496 v 65.13172 h -15.54349 v -99.36009 h 18.71925 l 44.7374,71.29798 c 1.89222,2.95695 3.1087,4.98917 3.64945,6.09751 h 0.26996 c -0.45021,-2.6325 -0.67573,-7.09015 -0.67573,-13.37293 v -64.02256 h 15.47557 z"
   style="fill:#ffffff;fill-rule:nonzero;stroke-width:0.838376"
   id="path2" />&#10;    <path
   d="m 289.25134,280.08446 h -54.40052 v -99.36009 h 52.23835 v 13.99669 h -36.15411 v 28.13085 h 33.31621 v 13.9271 h -33.31621 v 29.37835 h 38.31628 z"
   style="fill:#ffffff;fill-rule:nonzero;stroke-width:0.838376"
   id="path3" />&#10;    <path
   d="M 366.56466,194.72106 H 338.7222 v 85.3634 h -16.08423 v -85.3634 h -27.77455 v -13.99669 h 71.70124 z"
   style="fill:#ffffff;fill-rule:nonzero;stroke-width:0.838376"
   id="path4" />&#10;<rect
   style="fill:#512bd4;fill-opacity:1;stroke-width:1.01207"
   id="rect4"
   width="461.38873"
   height="460.83377"
   x="-1.8887469"
   y="-3.1112533"
   ry="0.51451141" /><circle
   style="fill:#fec41a;fill-opacity:1;stroke-width:26.62"
   id="path1-6"
   cx="230.5"
   cy="223.5"
   r="106.48" /><path
   sodipodi:type="star"
   style="fill:#fec41a;fill-opacity:1;stroke-width:0.264583"
   id="path2-3"
   inkscape:flatsided="false"
   sodipodi:sides="3"
   sodipodi:cx="1.6504987"
   sodipodi:cy="0.14546767"
   sodipodi:r1="0.41961831"
   sodipodi:r2="0.20980914"
   sodipodi:arg1="0"
   sodipodi:arg2="1.0471976"
   inkscape:rounded="0"
   inkscape:randomized="0"
   d="m 2.0701171,0.14546767 -0.3147138,0.18170005 -0.3147137,0.18170006 0,-0.36340012 0,-0.36340011 0.3147137,0.18170008 z"
   transform="matrix(0,-84.584808,73.252591,0,219.84401,225.57051)"
   inkscape:transform-center-y="-2.3477263"
   inkscape:transform-center-x="4.0727338e-06" /><path
   sodipodi:type="star"
   style="fill:#fec41a;fill-opacity:1;stroke-width:0.264583"
   id="path2-0"
   inkscape:flatsided="false"
   sodipodi:sides="3"
   sodipodi:cx="1.6504987"
   sodipodi:cy="0.14546767"
   sodipodi:r1="0.41961831"
   sodipodi:r2="0.20980914"
   sodipodi:arg1="0"
   sodipodi:arg2="1.0471976"
   inkscape:rounded="0"
   inkscape:randomized="0"
   d="m 2.0701171,0.14546767 -0.3147138,0.18170005 -0.3147137,0.18170006 0,-0.36340012 0,-0.36340011 0.3147137,0.18170008 z"
   transform="matrix(0,84.584808,-73.252591,0,241.15599,221.42949)"
   inkscape:transform-center-y="2.3477265"
   inkscape:transform-center-x="-4.0727338e-06" /><path
   sodipodi:type="star"
   style="fill:#fec41a;fill-opacity:1;stroke-width:0.264583"
   id="path2-5"
   inkscape:flatsided="false"
   sodipodi:sides="3"
   sodipodi:cx="1.6504987"
   sodipodi:cy="0.14546767"
   sodipodi:r1="0.41961831"
   sodipodi:r2="0.20980914"
   sodipodi:arg1="0"
   sodipodi:arg2="1.0471976"
   inkscape:rounded="0"
   inkscape:randomized="0"
   d="m 2.0701171,0.14546767 -0.3147138,0.18170005 -0.3147137,0.18170006 0,-0.36340012 0,-0.36340011 0.3147137,0.18170008 z"
   transform="matrix(56.389873,-56.389873,48.83506,48.83506,226.45243,213.33967)"
   inkscape:transform-center-y="0.78257194"
   inkscape:transform-center-x="0.78258132" /><path
   sodipodi:type="star"
   style="fill:#fec41a;fill-opacity:1;stroke-width:0.264583"
   id="path2-5-6"
   inkscape:flatsided="false"
   sodipodi:sides="3"
   sodipodi:cx="1.6504987"
   sodipodi:cy="0.14546767"
   sodipodi:r1="0.41961831"
   sodipodi:r2="0.20980914"
   sodipodi:arg1="0"
   sodipodi:arg2="1.0471976"
   inkscape:rounded="0"
   inkscape:randomized="0"
   d="m 2.0701171,0.14546767 -0.3147138,0.18170005 -0.3147137,0.18170006 0,-0.36340012 0,-0.36340011 0.3147137,0.18170008 z"
   transform="matrix(-56.389873,-56.389873,48.83506,-48.83506,220.33967,227.54757)"
   inkscape:transform-center-y="0.78257982"
   inkscape:transform-center-x="-0.78257259" /><path
   sodipodi:type="star"
   style="fill:#fec41a;fill-opacity:1;stroke-width:0.264583"
   id="path2-5-9"
   inkscape:flatsided="false"
   sodipodi:sides="3"
   sodipodi:cx="1.6504987"
   sodipodi:cy="0.14546767"
   sodipodi:r1="0.41961831"
   sodipodi:r2="0.20980914"
   sodipodi:arg1="0"
   sodipodi:arg2="1.0471976"
   inkscape:rounded="0"
   inkscape:randomized="0"
   d="m 2.0701171,0.14546767 -0.3147138,0.18170005 -0.3147137,0.18170006 0,-0.36340012 0,-0.36340011 0.3147137,0.18170008 z"
   transform="matrix(56.389873,56.389873,-48.83506,48.83506,240.66033,219.45243)"
   inkscape:transform-center-y="-0.78258196"
   inkscape:transform-center-x="0.78257077" /><path
   sodipodi:type="star"
   style="fill:#fec41a;fill-opacity:1;stroke-width:0.264583"
   id="path2-5-9-9"
   inkscape:flatsided="false"
   sodipodi:sides="3"
   sodipodi:cx="1.6504987"
   sodipodi:cy="0.14546767"
   sodipodi:r1="0.41961831"
   sodipodi:r2="0.20980914"
   sodipodi:arg1="0"
   sodipodi:arg2="1.0471976"
   inkscape:rounded="0"
   inkscape:randomized="0"
   d="m 2.0701171,0.14546767 -0.3147138,0.18170005 -0.3147137,0.18170006 0,-0.36340012 0,-0.36340011 0.3147137,0.18170008 z"
   transform="matrix(-56.389873,56.389873,-48.83506,-48.83506,234.54757,233.66033)"
   inkscape:transform-center-y="-0.78257141"
   inkscape:transform-center-x="-0.78258314" /><path
   sodipodi:type="star"
   style="fill:#fec41a;fill-opacity:1;stroke-width:0.264583"
   id="path2-4"
   inkscape:flatsided="false"
   sodipodi:sides="3"
   sodipodi:cx="1.6504987"
   sodipodi:cy="0.14546767"
   sodipodi:r1="0.41961831"
   sodipodi:r2="0.20980914"
   sodipodi:arg1="0"
   sodipodi:arg2="1.0471976"
   inkscape:rounded="0"
   inkscape:randomized="0"
   d="m 2.0701171,0.14546767 -0.3147138,0.18170005 -0.3147137,0.18170006 0,-0.36340012 0,-0.36340011 0.3147137,0.18170008 z"
   transform="matrix(84.584808,0,0,73.252591,228.42949,212.84401)"
   inkscape:transform-center-x="-2.3477265"
   inkscape:transform-center-y="-4.0727338e-06" /><path
   sodipodi:type="star"
   style="fill:#fec41a;fill-opacity:1;stroke-width:0.264583"
   id="path2-4-6"
   inkscape:flatsided="false"
   sodipodi:sides="3"
   sodipodi:cx="1.6504987"
   sodipodi:cy="0.14546767"
   sodipodi:r1="0.41961831"
   sodipodi:r2="0.20980914"
   sodipodi:arg1="0"
   sodipodi:arg2="1.0471976"
   inkscape:rounded="0"
   inkscape:randomized="0"
   d="m 2.0701171,0.14546767 -0.3147138,0.18170005 -0.3147137,0.18170006 0,-0.36340012 0,-0.36340011 0.3147137,0.18170008 z"
   transform="matrix(-84.584808,0,0,-73.252591,232.57051,234.15599)"
   inkscape:transform-center-x="2.3477269"
   inkscape:transform-center-y="4.0727339e-06" /></svg>
